<svg xmlns="http://www.w3.org/2000/svg" width="853" height="863" viewBox="0 0 853 863"><defs><style>.a{fill:#fff;font-size:30px;font-family:Montserrat-Regular, Montserrat;}.b{fill:rgba(255,255,255,0.56);}.c{fill:#e6b923;}.d{fill:#d6a731;}</style></defs><text class="a"><tspan x="0" y="29">Hello</tspan><tspan class="b" y="29">,</tspan><tspan y="29" xml:space="preserve"> i’m </tspan><tspan class="c" y="29">Stephanie Schneider</tspan><tspan y="29">.</tspan><tspan x="0" y="66"></tspan><tspan x="0" y="103">Highly adaptable, </tspan><tspan class="d" y="103">passionate</tspan><tspan y="103">, keen on details, team </tspan><tspan x="0" y="140">player.</tspan><tspan x="0" y="177"></tspan><tspan x="0" y="214">Education:</tspan><tspan x="0" y="251">B.S. </tspan><tspan class="d" y="251">Cognitive Science; Specialization in Design </tspan><tspan class="d" x="0" y="288">Interaction </tspan><tspan y="288">at University of California San Diego</tspan><tspan x="0" y="325">A.A. in</tspan><tspan class="d" y="325" xml:space="preserve"> Social &amp; Psychological Studies </tspan><tspan y="325">at Coastline </tspan><tspan x="0" y="362">Community College. </tspan><tspan x="0" y="399"></tspan><tspan x="0" y="436">Before transferring to San Diego, I worked 3.5 years in a </tspan><tspan x="0" y="473">flourishing </tspan><tspan class="d" y="473">visual department</tspan><tspan y="473" xml:space="preserve"> within a startup </tspan><tspan x="0" y="510">marketing company. </tspan><tspan x="0" y="547"></tspan><tspan x="0" y="584">I am currently interested in:</tspan><tspan x="0" y="621" xml:space="preserve"> -</tspan><tspan class="d" y="621">Product </tspan><tspan y="621">Design</tspan><tspan x="0" y="658" xml:space="preserve"> -Visual </tspan><tspan class="d" y="658">Communication</tspan><tspan y="658" xml:space="preserve"> Design</tspan><tspan x="0" y="695" xml:space="preserve"> -User </tspan><tspan class="d" y="695">Experience</tspan><tspan y="695" xml:space="preserve"> Design</tspan><tspan x="0" y="732" xml:space="preserve"> -User </tspan><tspan class="d" y="732">Interface</tspan><tspan y="732" xml:space="preserve"> Design</tspan><tspan x="0" y="769"></tspan><tspan x="0" y="806">Resume </tspan><tspan class="d" y="806">&gt; </tspan><tspan x="0" y="843">LinkedIn </tspan><tspan class="d" y="843">&gt;</tspan></text></svg>